<svg xmlns="http://www.w3.org/2000/svg" viewBox="0 0 476.737 476.737">
    <path d="M238.37 0C106.725 0 0 106.726 0 238.37c0 131.674 106.726 238.368 238.37 238.368 131.674 0 238.368-106.694 238.368-238.37C476.738 106.728 370.043 0 238.368 0zm114.35 289.22c-6.198 6.2-16.273 6.2-22.47 0l-91.88-91.88-91.884 91.883c-6.198 6.2-16.273 6.2-22.47 0-6.198-6.165-6.198-16.272 0-22.47l103.07-103.07c3.115-3.115 7.183-4.64 11.283-4.64s8.16 1.526 11.28 4.64l103.07 103.07c6.2 6.198 6.2 16.24 0 22.47z" fill="#010002"/>
</svg>
